<svg id="Layer_1" data-name="Layer 1" xmlns="http://www.w3.org/2000/svg" viewBox="0 0 1122.12 350.14"><path d="M203.12,558.46H327.56V681.22c14.5-13,40.17-29.3,92.07-29.3,75.88,0,139.49,47,139.49,123.69,0,85.56-66.95,133-146.75,133-51.33,0-76.44-14.41-90.95-30.69-.56,5.58-1.12,18.6-2.23,24.18H202.56c.56-30.69.56-53,.56-79.51ZM378.89,721.67c-39.62,0-54.68,22.79-54.68,57.66,0,32.09,15.06,59.06,53,59.06,37.38,0,55.24-24.18,55.24-59.06C432.46,745.85,416.28,721.67,378.89,721.67Z" transform="translate(-202.56 -558.46)"/><path d="M579.77,728.65c0-23.72,0-50.22-.56-70.22H699.74c1.67,9.3,3.35,34.88,3.35,46.5,13.39-26,43-53.94,106.57-53v89.75c-67.51-1.86-106,13.48-106,80.44v80H579.77Z" transform="translate(-202.56 -558.46)"/><path d="M834.21,624.49v-66H958.64v66Zm0,33.94H958.64V902.09H834.21Z" transform="translate(-202.56 -558.46)"/><path d="M1102,802.58c1.12,24.18,19,42.32,53,42.32,27.91,0,39.62-7.44,46.88-18.6h120c-16.74,41.38-56.92,82.3-168,82.3-132.81,0-175.21-66-175.21-128.8,0-67,53.56-127.88,174.65-127.88,123.88,0,171.31,66,171.31,128.81v21.85ZM1203.6,750c-1.12-18.14-10.6-38.13-49.1-38.13-37.39,0-50.22,16.74-51.9,38.13Z" transform="translate(-202.56 -558.46)"/></svg>